<svg width="39" height="44" viewBox="0 0 39 44" fill="none" xmlns="http://www.w3.org/2000/svg">
<g filter="url(#filter0_d)">
<path d="M11.375 34.1667H27.625" stroke="white" stroke-width="2" stroke-linecap="round" stroke-linejoin="round"/>
<path d="M16.25 34.1667C25.1875 29.8958 17.55 23.2333 21.125 17.0833" stroke="white" stroke-width="2" stroke-linecap="round" stroke-linejoin="round"/>
<path d="M15.4375 16.0583C17.225 17.425 18.3625 19.8167 19.175 22.3792C15.925 23.0625 13.4875 23.0625 11.375 21.8667C9.425 20.8417 7.6375 18.6208 6.5 14.6917C11.05 13.8375 13.65 14.6917 15.4375 16.0583V16.0583Z" stroke="white" stroke-width="2" stroke-linecap="round" stroke-linejoin="round"/>
<path d="M22.9124 10.25C21.6735 12.2856 21.0503 14.668 21.1249 17.0833C24.2124 16.9125 26.4874 16.0583 28.1124 14.6917C29.7374 12.9833 30.7124 10.7625 30.8749 6.83334C26.4874 7.00418 24.3749 8.54168 22.9124 10.25Z" stroke="white" stroke-width="2" stroke-linecap="round" stroke-linejoin="round"/>
</g>
<defs>
<filter id="filter0_d" x="-4" y="0" width="47" height="49" filterUnits="userSpaceOnUse" color-interpolation-filters="sRGB">
<feFlood flood-opacity="0" result="BackgroundImageFix"/>
<feColorMatrix in="SourceAlpha" type="matrix" values="0 0 0 0 0 0 0 0 0 0 0 0 0 0 0 0 0 0 127 0"/>
<feOffset dy="4"/>
<feGaussianBlur stdDeviation="2"/>
<feColorMatrix type="matrix" values="0 0 0 0 0 0 0 0 0 0 0 0 0 0 0 0 0 0 0.25 0"/>
<feBlend mode="normal" in2="BackgroundImageFix" result="effect1_dropShadow"/>
<feBlend mode="normal" in="SourceGraphic" in2="effect1_dropShadow" result="shape"/>
</filter>
</defs>
</svg>
